<svg height="60" viewBox="0 0 60 60" width="60" xmlns="http://www.w3.org/2000/svg"><path d="m35.9955151 27.6266598c0-3.7872272-2.9443436-6.7968616-6.2228538-6.7968616-2.5050589 0-4.7197412 0-6.1910709 3.1702013-.2716348.585278-.5860749 2.2895189-.5860749 3.1324176v16.3675824l-7.9587385-.0000006-.0000003-20.7897407v-10.2543852h8.2644904l.4076675 4.044127h.178408c1.193235-1.9216397 3.9050832-4.044127 8.7976615-4.044127 5.964076 0 11.3105112 4.7207295 11.3105112 13.3739249v17.6702016h-8.0000002zm-31.67470423-18.86017956c-2.60381496 0-4.28403415-1.84242092-4.28403415-4.11897002 0-2.33188852 1.73460448-4.12183241 4.39089647-4.12183241 2.656292 0 4.28403415 1.78898976 4.33841944 4.12183241.00095412 2.2765491-1.68117331 4.11897002-4.44528176 4.11897002zm-3.32529533 34.73351926-.00000024-31.0441261 6.98820282.0000003.00000023 31.0441262z" fill="none" stroke="#ffffffb3" stroke-width="2.5" transform="translate(9.004485 6.5)"/></svg>
